<svg width="40" height="38" viewBox="0 0 40 38" fill="none" xmlns="http://www.w3.org/2000/svg">
<path d="M37.9594 12.8903L30.4604 2.77945C29.1331 1.03852 27.2086 0.034127 25.0187 0.034127C22.8287 0.034127 20.8378 1.03852 19.5769 2.77945L12.0116 12.9573C10.7507 14.6312 9.95438 16.7739 9.95438 19.0505C9.95438 24.6082 14.467 29.1614 19.9751 29.1614L17.1879 32.8441C16.657 33.5807 15.8606 33.9824 14.9316 33.9824C14.0689 33.9824 13.2061 33.5807 12.6752 32.8441L5.24264 22.7333C3.64994 20.5906 3.64994 17.5105 5.24264 15.3678L12.7416 5.18999C13.2061 4.52039 13.9361 4.1856 14.6661 4.05168C14.9316 4.05168 15.197 4.05168 15.3961 4.11864L17.9179 0.703719C16.7897 0.168045 15.5288 -0.0997915 14.2679 0.034127C12.3434 0.235005 10.6844 1.17243 9.5562 2.7125L1.99088 12.8903C-0.663625 16.5061 -0.663625 21.528 1.99088 25.1438L9.48984 35.2547C10.8171 36.9956 12.7416 38 14.9316 38C17.1215 38 19.1124 36.9956 20.3733 35.2547L27.8723 25.0769C28.6686 24.0055 29.2659 22.8003 29.5977 21.528H25.4168C24.4878 23.6038 22.3642 25.0769 19.9751 25.0769C16.657 25.0769 14.0025 22.3315 14.0025 19.0505C14.0025 15.7026 16.7234 13.0242 19.9751 13.0242C22.3642 13.0242 24.4878 14.4973 25.4168 16.5731H29.664C28.5359 12.1537 24.6205 8.9397 19.9751 8.9397L22.7623 5.18999C23.2932 4.45343 24.0896 4.05168 25.0187 4.05168C25.8814 4.05168 26.7441 4.45343 27.275 5.18999L34.774 15.3008C36.3667 17.4435 36.3667 20.5236 34.774 22.6663L27.275 32.8441C26.8105 33.5137 26.0805 33.9155 25.2178 33.9824C25.0187 33.9824 24.7532 33.9824 24.5541 33.9155L22.0324 37.2634C22.9614 37.7322 23.9569 38 25.0187 38H25.5496C27.5404 37.8661 29.3322 36.8617 30.4604 35.2547L37.9594 25.1438C40.6802 21.528 40.6802 16.5061 37.9594 12.8903Z" fill="#29AC7E"/>
</svg>
